# xmcd
#
# Track frame offsets: 
#        150
#        14868
#        27840
#        41013
#        52556
#        65459
#        80610
#        105549
#        109161
#        122591
#        144403
#        155136
#
# Disc length: 2229 seconds
#
# Revision: 0
# Processed by: cddbd v1.5.1PL2 Copyright (c) Steve Scherf et al.
# Submitted via: ExactAudioCopy v0.95b3
#
DISCID=9c08b30c
DTITLE=Dinosaur Jr. - J Mascis Live at CBGB'S - The First Acoustic Sho
DTITLE=w
DYEAR=2006
DGENRE=Rock
TTITLE0=What Else Is New
TTITLE1=Thumb
TTITLE2=Keeblin'
TTITLE3=Not You Again
TTITLE4=Flying Cloud
TTITLE5=Every Mother's Son
TTITLE6=Not the Same
TTITLE7=Throw Down
TTITLE8=Get Me
TTITLE9=Quest
TTITLE10=On the Run
TTITLE11=Repulson
EXTD=
EXTT0=
EXTT1=
EXTT2=
EXTT3=
EXTT4=
EXTT5=
EXTT6=
EXTT7=
EXTT8=
EXTT9=
EXTT10=
EXTT11=
PLAYORDER=
